<svg width="376" height="261" viewBox="0 0 376 261" version="1.1" xmlns="http://www.w3.org/2000/svg" xmlns:xlink="http://www.w3.org/1999/xlink">
    <g stroke="none" stroke-width="1" fill="none" fill-rule="evenodd">
        <g transform="translate(-52.000000, -235.000000)">
            <g transform="translate(52.000000, 235.000000)">
                <path d="M49.1113053,246.253521 C41.2069353,210.09889 16.2065075,66.726666 103.984718,17.9053317 C204.756413,-38.1301515 231.766019,50.5367733 274.524209,103.228822 C309.053193,145.782715 341.440657,192.423027 350.403756,246.253521 L49.1113053,246.253521 Z" fill="#333B9F"></path>
                <path d="M119.343423,76.6713615 L120.731694,76.6713615 C133.944203,76.6713615 144.751174,87.5181023 144.751174,100.779234 L144.751174,163.169014 L95.3239437,163.169014 L95.3239437,100.779234 C95.3239437,87.5181023 106.130914,76.6713615 119.343423,76.6713615 Z" fill="#B3B3B3"></path>
                <path d="M121.355432,76.6713615 C134.309898,77.1880165 144.751174,87.8214965 144.751174,100.761901 L144.751174,163.169014 L97.971831,163.169014 L97.971831,100.761901 C97.971831,87.8214965 108.400966,77.1880165 121.355432,76.6713615 Z" fill="#DBD8D1"></path>
                <path d="M122.815683,66.7814257 C122.020349,59.4160696 131.184489,50.9793889 150.046948,58.3082226 C150.046948,58.3082226 149.89263,63.0317899 148.515635,66.1361962 C148.301963,66.6231619 148.171386,67.0736052 148.100162,67.5118743 C148.100162,67.5118743 147.815267,68.7171144 147.922102,70.1901856 C148.028938,71.6632568 145.536102,83.9469665 137.689604,84.5556736 C130.353544,85.1156842 126.732996,81.6582277 124.798081,76.4842172 C123.68224,76.1555154 122.40021,75.3276737 121.521782,73.3676368 C119.681832,69.2284284 122.649494,67.4997001 122.649494,67.4997001 L122.863165,67.2440432 C122.839424,67.0857793 122.827553,66.9396896 122.815683,66.7814257 Z" fill="#E9A355"></path>
                <path d="M262.851489,85.4976526 C263.300531,85.4032765 263.749574,85.2853065 264.22289,85.1319454 L262.851489,85.4976526 Z M244.792689,57.998834 C244.792689,57.998834 243.979558,62.2575528 245.011142,64.8410969 C246.042727,67.4128439 244.574236,73.7478356 244.804825,74.656205 C245.035415,75.5645744 247.863171,75.5409804 247.863171,75.5409804 C247.863171,75.5409804 248.639893,87.7154895 259.586827,84.7662383 C260.242186,84.5892832 260.800456,84.4005311 261.273771,84.199982 C263.009261,84.9313963 264.198617,85.1319454 264.235026,85.1319454 C268.689044,83.7163048 273.883376,79.6581351 273.604242,69.2885677 C273.21588,54.4361385 264.51416,51.5458722 258.191153,51.1093831 C251.868146,50.6610969 247.66899,54.7192666 247.353446,56.9724945 C247.353446,56.9724945 247.389855,57.5623448 247.486946,58.5532932 C246.212635,58.3291501 244.780553,58.069616 244.792689,57.998834 Z" fill="#A27C55"></path>
                <path d="M253.146853,148.164319 L251.795249,148.896592 C250.127851,150.241094 247.727808,153.962481 249.55942,163.950205 L260.877518,218.774648 L269.201878,216.841927 L269.201878,162.70174 C253.513175,161.261203 253.146853,148.164319 253.146853,148.164319 Z" fill="#A27C55"></path>
                <path d="M260.208118,218.99493 C260.208118,218.99493 249.542006,225.666838 248.915977,230.365538 C248.289949,235.064239 268.039384,228.478658 269.598549,225.987484 C271.157715,223.508642 268.511858,218.341305 267.992136,217.00939 L260.208118,218.99493 Z" fill="#354A5E"></path>
                <path d="M104.453446,131.610728 C104.849184,135.807291 105.364842,139.776689 105.916477,143.184155 L105.952454,143.339583 L105.976438,143.495012 L106.024406,143.781956 L106.024406,143.805868 L106.04839,143.961297 L106.072374,144.116725 L106.10835,144.272153 L106.156319,144.571054 L106.180303,144.726482 L106.204287,144.869954 L106.240263,145.025382 L106.264247,145.168855 L106.276239,145.228635 L106.288231,145.312327 L106.312216,145.467755 L106.348192,145.611227 L106.39616,145.898172 L106.408152,145.957952 L106.420144,146.041644 L106.480105,146.316632 L106.504089,146.460105 L106.528073,146.591621 L106.564049,146.735093 L106.588033,146.866609 L106.636001,147.141598 L106.671978,147.273114 L106.68397,147.34485 L106.695962,147.40463 L106.80389,147.918739 L106.827874,148.002431 L106.827874,148.050255 L106.947795,148.540452 L106.959787,148.624144 L106.971779,148.660012 L107.079708,149.138253 L107.103692,149.221945 L107.103692,149.257813 L107.235605,149.771922 L107.235605,149.795834 L107.247597,149.819746 C107.295565,149.999087 107.331541,150.166471 107.379509,150.333855 L107.379509,150.345811 C107.427478,150.513196 107.475446,150.68058 107.523414,150.847964 C107.571382,151.015348 107.619351,151.170777 107.655327,151.314249 C110.629359,161.130141 113.687336,165.816901 113.687336,165.816901 L133.869981,165.816901 L156.031317,165.816901 C156.031317,165.816901 155.311793,160.998625 154.388404,154.028266 C156.22319,154.984747 157.398412,155.881449 157.554309,156.036877 C157.974031,156.467294 157.842119,162.349656 157.842119,162.349656 C157.842119,162.349656 163.046675,158.990014 170.433787,158.344389 C170.074025,157.71072 169.654303,157.065095 169.198604,156.407514 L172.112676,155.582548 C172.112676,155.582548 161.535675,142.550486 152.181864,135.62795 C151.270467,127.091352 150.550943,118.435193 150.514967,112.206107 C152.757483,111.727866 155.275817,111.046373 157.698214,110.065979 C157.062635,108.188884 156.379087,106.323745 155.695539,104.62599 C152.637563,97.1415215 147.289102,91.5700161 147.289102,91.5700161 C139.96195,86.1539389 129.804671,83.0931978 118.280296,87.8636498 C115.474153,89.0233838 113.183669,90.6015784 111.312907,92.4547616 C107.811224,94.9894378 103.302207,102.175006 99.9564212,109.683387 C95.5553333,119.582971 93.1928965,130.044489 97.9177701,131.132487 C99.6566195,131.538992 101.92312,131.670508 104.453446,131.610728 Z M103.398144,110.568132 L103.625993,110.687691 L103.398144,110.568132 Z M107.247597,149.819746 C107.295565,149.999087 107.331541,150.166471 107.379509,150.333855 L107.247597,149.819746 Z M107.379509,150.345811 C107.427478,150.513196 107.475446,150.68058 107.523414,150.847964 L107.379509,150.345811 Z" fill="#E9EBEC"></path>
                <path d="M104.150235,131.885234 C104.284606,133.22426 104.418977,134.539585 104.577779,135.807512 L152.694836,135.238722 C152.255076,131.197947 151.864178,127.157172 151.583221,123.365242 L149.152326,121.101934 L143.887423,107.984227 L133.113307,119.040072 C133.113307,119.040072 118.796681,118.731978 117.697281,116.44497 C116.597882,114.157963 117.770574,106.680751 117.770574,106.680751 C117.770574,106.680751 112.114774,119.419265 112.664474,119.881407 C113.214174,120.343548 116.46351,120.343548 116.46351,120.343548 L118.747819,124.265825 C118.747819,124.265825 116.512373,130.107767 113.983754,131.0676 C111.46735,132.027432 104.150235,131.885234 104.150235,131.885234 Z" fill="#D2D4D4"></path>
                <path d="M158.664877,109.861195 C160.773092,116.317257 162.403756,122.869319 162.403756,122.869319 L149.113846,124.333333 L146.516432,98.7370892 L147.925791,112.705222 C150.639682,112.309219 154.786227,111.481211 158.664877,109.861195 Z" fill="#A27C55"></path>
                <rect id="Rectangle" fill="#242C8A" x="0" y="246.253521" width="376" height="14.1220657" rx="7.06103286"></rect>
                <rect id="Rectangle" fill="#B3B3B3" x="94.4413146" y="164.934272" width="65.314554" height="5.29577465"></rect>
                <path d="M151.590941,111.976526 C153.86438,111.51631 156.417439,110.860501 158.873239,109.917058 C158.35047,108.478882 157.815543,107.040706 157.256302,105.694573 C153.548287,102.461554 150.046948,99.6197183 150.046948,99.6197183 C150.046948,99.6197183 150.569718,100.839291 151.0317,104.555538 C151.493682,108.271785 151.590941,111.976526 151.590941,111.976526 Z" fill="#D2D4D4"></path>
                <path d="M129.706426,75.7887324 C129.706426,75.7887324 126.690017,86.5897332 126.244973,86.7963411 C125.812292,86.9914708 130.275093,92.6043182 135.912315,92.5584053 C141.561899,92.5124925 139.200694,88.8624199 139.200694,88.8624199 L140.338028,78.9911545 L129.706426,75.7887324 Z" fill="#E9A355"></path>
                <polygon fill="#302B2F" points="124.450704 170.230047 124.450704 246.13615 120.037559 246.13615 120.037559 170.230047"></polygon>
                <polygon fill="#302B2F" points="102.384977 170.230047 102.384977 246.13615 97.971831 246.13615 97.971831 170.230047"></polygon>
                <polygon fill="#302B2F" points="156.225352 170.230047 156.225352 246.13615 151.812207 246.13615 151.812207 170.230047"></polygon>
                <polygon fill="#302B2F" points="135.042254 170.230047 135.042254 246.13615 130.629108 246.13615 130.629108 170.230047"></polygon>
                <path d="M140.961688,67.8450704 C140.961688,67.8450704 140.846801,71.6545393 142.059491,73.6539189 C143.284947,75.6532986 139.455399,76.4104601 139.455399,76.4104601 C139.455399,76.4104601 141.842484,77.0493151 143.119,76.3276456 C144.408281,75.6178066 143.808318,73.7485641 143.004113,72.2815637 C142.187143,70.8027326 140.961688,67.8450704 140.961688,67.8450704 Z" fill="#BD8445"></path>
                <path d="M144.751174,219.064633 C144.751174,219.064633 149.197665,233.46334 153.707859,234.550255 C158.218053,235.63717 159.058937,228.531315 158.842345,224.592708 C158.625754,220.665788 155.84829,214.55335 154.867259,214.015736 C153.873487,213.466435 145.2608,211.888655 144.751174,219.064633 Z" fill="#0F121E"></path>
                <path d="M146.199286,102.267606 L175.116715,102.267606 C176.331733,102.267606 177.765455,103.344214 177.328048,104.46921 L169.34538,124.791713 C168.895823,125.916709 168.349065,126.981221 167.134047,126.981221 L138.216618,126.981221 C137.0016,126.981221 135.567879,125.916709 136.005285,124.791713 L143.987954,104.46921 C144.43751,103.344214 144.984268,102.267606 146.199286,102.267606 Z" fill="#FFFFFF"></path>
                <path d="M177.36183,102.832417 C177.434351,103.083444 177.422264,103.359573 177.32557,103.623152 L169.38459,124.709426 C168.937381,125.876702 168.393478,126.981221 167.184806,126.981221 L138.418393,126.981221 C137.87449,126.981221 137.294327,126.767848 136.859205,126.41641 C136.786685,126.165383 136.786685,125.901804 136.883379,125.625674 L144.836446,104.551952 C145.271568,103.384676 145.815471,102.267606 147.024143,102.267606 L175.802643,102.267606 C176.334459,102.267606 176.914622,102.49353 177.36183,102.832417 Z" fill="#E6E6E6"></path>
                <path d="M116.33404,120.954449 C121.905578,121.265916 129.135168,121.796564 133.243721,122.546392 C133.438785,122.581 133.63385,122.627143 133.816724,122.673286 C133.816724,122.673286 135.608882,121.508168 136.937761,121.058271 C138.278831,120.61991 138.888409,120.550695 138.888409,120.550695 L139.437028,122.131103 C139.437028,122.131103 145.874167,119.616294 146.459362,119.950833 C146.544703,119.996976 146.532511,120.193085 146.434979,120.493016 C146.300872,121.611991 145.58157,124.265229 141.985063,126.595465 C137.279124,129.640922 121.91777,130.194641 121.91777,130.194641 C119.430694,130.60993 116.663212,131.036756 113.859155,131.394366 C113.956687,128.510411 115.578164,123.273149 116.33404,120.954449 Z" fill="#E9A355"></path>
                <path d="M147.991352,72.258216 C148.258463,72.4787072 148.572029,72.6716371 148.932048,72.8370055 C151.208302,73.8567776 151.812207,73.7189705 151.812207,73.7189705 C151.812207,73.7189705 149.919199,75.5793655 147.399061,74.6422777 C147.642945,73.7878741 147.840376,72.9748125 147.991352,72.258216 Z" fill="#9A6709"></path>
                <path d="M111.211268,151.158401 L117.704199,166.573001 L135.478748,166.573001 L144.84009,164.613316 C144.540047,165.784347 144.432032,166.573001 144.432032,166.573001 L153.457326,166.573001 C153.457326,166.573001 150.012832,178.904682 149.376741,188.655313 L148.488614,205.68307 L147.984541,213.999785 C149.65278,214.76454 152.305161,215.79218 155.065557,216.126761 L159.278161,201.978786 C160.382319,198.632981 161.210438,196.051932 161.210438,196.051932 C161.762517,194.390979 164.114854,187.257245 166.275164,180.744875 C166.683223,182.871851 166.45519,181.832261 167.619357,187.627673 C168.783524,193.411136 171.61593,205.838411 172.684083,210.403044 C174.436335,210.283551 176.656653,209.877275 180.137152,208.981077 C180.797247,193.243846 182.48949,149.401853 177.352753,145.159851 C171.015844,139.926056 116.155977,144.395095 111.211268,151.158401 Z" fill="#E9A355"></path>
                <path d="M129.746479,166.712185 L136.161824,166.712185 L145.480203,164.740663 C145.181537,165.918768 145.074017,166.712185 145.074017,166.712185 L154.05789,166.712185 C154.05789,166.712185 153.878691,167.349323 153.603918,168.443277 C156.291912,167.794117 158.490094,167.397409 158.8246,167.794117 C159.780331,168.912114 162.540004,194.061033 162.540004,194.061033 C163.531576,191.007579 165.227998,185.814303 166.816901,180.96965 L164.762079,160.521127 L129.746479,166.712185 Z" fill="#D2934D"></path>
                <path d="M105.032864,142.228825 C105.129468,142.86241 105.226073,143.472085 105.322678,144.069807 L105.358904,144.225214 L105.383055,144.380622 L105.431358,144.667528 L105.431358,144.691437 L105.455509,144.846844 L105.47966,145.002252 L105.515887,145.157659 L105.564189,145.45652 L105.58834,145.611927 L105.612491,145.75538 L105.648718,145.910788 L105.672869,146.054241 L105.684945,146.114013 L105.69702,146.197694 L105.721172,146.353101 L105.757398,146.496555 L105.805701,146.783461 L105.817776,146.843233 L105.829852,146.926914 L105.89023,147.201866 L105.914381,147.345319 L105.938532,147.476817 L105.974759,147.62027 L105.99891,147.751769 L106.047212,148.026721 L106.083439,148.158219 L106.095514,148.229946 L106.10759,148.289718 L106.21627,148.803758 L106.240421,148.887439 L106.240421,148.935257 L106.361177,149.425388 L106.373253,149.509069 L106.385328,149.544933 L106.494008,150.02311 L106.518159,150.10679 L106.518159,150.142654 L106.650991,150.656694 L106.650991,150.680603 L106.663066,150.704512 C106.711369,150.883828 106.747595,151.05119 106.795898,151.218552 L106.795898,151.230506 C106.8442,151.397868 106.892502,151.56523 106.940805,151.732592 C106.989107,151.899954 107.037409,152.055362 107.073636,152.198815 C110.068378,162.013396 113.147649,166.699531 113.147649,166.699531 L116.31145,166.699531 L133.47084,166.699531 L152.912514,166.699531 C152.912514,166.699531 153.76988,165.002002 155.182722,162.599163 L155.158571,162.383984 C155.798576,161.343949 156.595564,160.112643 157.585761,158.702021 L157.585761,158.749839 C159.819742,155.354782 162.645426,151.625002 165.567715,149.1863 C169.262841,145.564109 172.112676,143.699219 172.112676,143.699219 L156.257448,140.041166 C155.436309,139.3239 154.61517,138.630544 153.794031,137.97305 C151.88609,137.805689 149.857394,137.686144 147.695866,137.626372 C131.550824,137.172104 116.154467,139.682533 105.032864,142.228825 Z M106.663066,150.704512 C106.711369,150.883828 106.747595,151.05119 106.795898,151.218552 L106.663066,150.704512 Z M106.795898,151.230506 C106.8442,151.397868 106.892502,151.56523 106.940805,151.732592 L106.795898,151.230506 Z" fill="#354A5E"></path>
                <path d="M127.981221,166.699531 L133.002872,166.699531 L152.02607,166.699531 C152.02607,166.699531 152.864981,164.790901 154.247412,162.08925 L154.223781,161.847311 C154.294675,161.699459 154.377384,161.551607 154.460094,161.403756 L127.981221,166.699531 Z" fill="#2B3C4D"></path>
                <rect id="Rectangle" fill="#302B2F" x="66.1971831" y="130.511737" width="271.849765" height="7.06103286"></rect>
                <path d="M60.0187793,246.13615 C63.9124447,223.70012 75.184234,159.00816 79.1275002,137.57277 L84.7323944,137.57277 C81.0619327,157.477061 69.7281424,222.542754 65.6236735,246.13615 L60.0187793,246.13615 Z" fill="#562304"></path>
                <path d="M283.017635,246.13615 C278.915225,222.542754 267.587118,157.477061 263.906103,137.57277 L269.520581,137.57277 C273.461869,159.00816 284.728006,223.70012 288.619718,246.13615 L283.017635,246.13615 Z" fill="#562304"></path>
                <path d="M330.679607,246.370892 C326.577196,222.777496 315.236696,157.711803 311.568075,137.807512 L317.170158,137.807512 C321.111447,159.242902 332.377583,223.934862 336.28169,246.370892 L330.679607,246.370892 Z" fill="#562304"></path>
                <path d="M107.680751,246.13615 C111.275008,225.472337 121.103442,168.990446 125.714006,143.431937 C126.110614,141.237764 126.470039,139.272652 126.779889,137.57277 L132.394366,137.57277 C128.713351,157.477061 117.385245,222.542754 113.282834,246.13615 L107.680751,246.13615 Z" fill="#562304"></path>
                <path d="M173.322633,210.514622 C173.322633,210.514622 172.196534,212.262875 172.196534,214.118897 C172.196534,215.974918 172.112676,217.232223 172.112676,217.232223 C172.112676,217.232223 181.38502,224.835925 186.524343,225.769923 C191.663665,226.703921 187.135311,217.435787 184.859154,213.999153 C182.594977,210.562519 180.618315,209.065728 180.618315,209.065728 C180.618315,209.065728 176.401435,210.634365 173.322633,210.514622 Z" fill="#0F121E"></path>
                <path d="M135.041288,48.5882011 C135.041288,48.5882011 135.360442,37.4614842 124.391023,36.9680599 C120.442977,36.7830258 117.440572,38.3249766 115.289242,40.7057486 C115.289242,40.7057486 111.565786,42.6547745 110.525582,48.6745504 C109.485379,54.6943263 108.56338,55.1877505 108.56338,55.1877505 C108.56338,55.1877505 109.792712,55.9402225 111.045684,55.237093 C111.092966,55.6565036 111.163889,56.0635786 111.246633,56.4459824 C112.771476,63.5512917 109.887276,65.3029478 109.887276,65.3029478 C109.887276,65.3029478 115.49019,68.9912941 119.816491,60.2946916 C124.142792,51.5980891 123.811818,48.7362284 126.388686,48.748564 C128.977375,48.7732352 129.556579,50.2165012 129.556579,50.2165012 L135.041288,48.5882011 Z" fill="#8B5D08"></path>
                <path d="M133.929476,61.7386061 C133.929476,61.7386061 138.48843,63.9884056 144.439066,63.6755993 C150.389701,63.3627929 150.929577,61.7386061 150.929577,58.093209 C150.929577,54.4598429 146.754535,43.848489 134.937245,46.0862575 C123.119954,48.336057 123.731814,55.7712234 122.35213,57.6360305 C120.96045,59.4888066 122.652062,67.4653685 122.652062,67.4653685 C122.652062,67.4653685 124.007751,65.9614918 126.167256,69.679075 C126.467187,70.1843776 126.719129,70.6656181 126.959074,71.1107656 C126.959074,71.1107656 127.594928,74.106488 129.574474,76.0795742 C131.542023,78.0646915 133.389599,74.4192944 133.389599,74.4192944 C133.389599,74.4192944 132.045908,75.923171 130.534254,74.4553874 C130.066361,73.9982089 129.76643,73.4086892 129.586472,72.8312006 C129.598469,72.7590145 129.622463,72.6988594 129.646458,72.6266733 C130.570246,69.4504858 129.022601,66.6231976 131.266086,65.4200962 C133.509572,64.2169949 133.929476,61.7386061 133.929476,61.7386061 Z" fill="#9A6709"></path>
                <rect id="Rectangle" fill="#B3B3B3" x="258.610329" y="164.934272" width="65.314554" height="5.29577465"></rect>
                <polygon fill="#302B2F" points="294.798122 170.230047 294.798122 246.13615 299.211268 246.13615 299.211268 170.230047"></polygon>
                <polygon fill="#302B2F" points="315.098592 170.230047 315.098592 246.13615 319.511737 246.13615 319.511737 170.230047"></polygon>
                <polygon fill="#302B2F" points="261.258216 170.230047 261.258216 246.13615 265.671362 246.13615 265.671362 170.230047"></polygon>
                <polygon fill="#302B2F" points="283.323944 170.230047 283.323944 246.13615 287.737089 246.13615 287.737089 170.230047"></polygon>
                <path d="M215.331419,87.2629108 L195.069892,87.2629108 C193.666706,87.2629108 191.973205,88.5344951 192.517545,89.8181897 L203.138213,114.717022 C203.682553,116.012826 204.287375,117.2723 205.690561,117.2723 L225.952088,117.2723 C227.355274,117.2723 229.048775,116.012826 228.492339,114.717022 L217.883766,89.8181897 C217.32733,88.5344951 216.734605,87.2629108 215.331419,87.2629108 Z" fill="#0D0C12"></path>
                <path d="M214.425642,89.028169 L196.837481,89.028169 C196.013595,89.028169 194.700155,89.4867533 195.153889,90.560806 L204.371853,112.391832 C204.849467,113.514156 205.374844,114.624413 206.592761,114.624413 L224.180923,114.624413 C224.766001,114.624413 225.39884,114.370985 225.852574,113.984809 C225.971978,113.707245 225.995858,113.393476 225.864514,113.079708 L216.646551,91.2607504 C216.168936,90.1263577 215.64356,89.028169 214.425642,89.028169 Z" fill="#EBEFF0"></path>
                <path d="M210.025498,115.673723 C210.025498,115.673723 207.444973,110.885713 205.752629,110.410476 C204.060284,109.94712 202.27192,110.362953 202.27192,110.933237 C202.27192,111.515402 204.096292,111.978758 204.516377,112.869827 C204.936463,113.760895 204.936463,113.760895 204.936463,113.760895 L200.975657,111.836187 L200.30352,110.291667 C200.30352,110.291667 198.203092,114.98463 200.687598,118.845929 C202.007867,120.913209 211.441786,125.249744 214.166341,126.09329 C217.887098,127.245739 225.676683,128.837782 229.133386,129.526875 C229.685498,129.633803 230.237611,129.740732 230.777721,129.84766 L230.861738,129.859541 C233.622299,130.35854 236.250834,130.608039 238.495291,130.477349 C241.975999,130.251611 245.552727,128.600163 248.901408,126.283384 C245.720761,123.277512 240.679736,117.56279 237.283044,113.606444 C237.151018,113.713372 237.054998,113.784657 236.970981,113.832181 C236.322849,114.200489 211.309759,118.240002 210.025498,115.673723 Z" fill="#A27C55"></path>
                <path d="M263.023474,83.9577533 C263.023474,83.9577533 264.067613,92.5646293 263.636338,93.3009107 C263.193714,94.0371922 274.497653,91.6379303 274.497653,91.6379303 C274.497653,91.6379303 271.648969,81.3553793 271.898655,79.6289263 C272.14834,77.9024733 263.023474,83.9577533 263.023474,83.9577533 Z" fill="#A27C55"></path>
                <path d="M297.084912,114.494591 C296.760008,109.770885 295.65293,104.365531 293.787745,99.2830629 C290.201776,94.3799761 286.170568,90.3737955 282.524431,89.4888481 C275.942132,87.8744171 265.099989,86.8220472 257.458745,91.7610103 C257.133842,91.8447215 256.64047,92.1676077 256.026764,92.6579164 C255.437125,93.0525551 254.775285,93.6624512 254.065311,94.4158524 C248.553989,99.7016191 238.830957,111.086347 236.544601,112.987788 C239.950069,116.970051 245.00412,122.722209 248.192985,125.747773 C249.576832,124.791073 250.912546,123.726744 252.200126,122.602622 C252.200126,122.602622 257.278243,134.836421 259.035128,143.578266 C259.889503,147.871457 255.569493,149.892485 250.936613,150.849185 C250.792211,156.254539 250.671877,160.846699 250.467308,164.051643 L297.337614,164.051643 C298.083688,158.550619 299.250933,143.972905 297.084912,114.494591 Z" fill="#E6E8E7"></path>
                <path d="M243.54556,62.6739271 C244.532189,64.0436579 245.863543,65.4133886 247.539623,66.1875842 C251.498024,68.0099216 252.068605,72.0476495 254.208281,72.2382207 C256.33607,72.428792 253.697136,67.5692256 256.966086,66.3066912 C260.246923,65.0560675 261.376197,74.0605581 260.496552,74.7513788 C259.616908,75.4541102 258.29744,75.704235 258.29744,75.704235 C258.29744,75.704235 260.246923,80.1826589 265.774421,79.1702492 C271.313806,78.1578396 276.722432,74.6918253 275.082014,61.7091603 C273.453482,48.7264952 262.065648,44.0575001 253.578265,46.3324442 C245.078995,48.5954775 239.480175,50.1796009 237.970514,49.1671912 C237.447482,48.8098702 236.948224,49.4411374 236.805579,50.5607433 C236.805579,50.5607433 235.070064,57.8143608 240.550013,61.3280178 C241.58419,61.9950171 242.594593,62.4118917 243.54556,62.6739271 Z" fill="#2C2D6B"></path>
                <path d="M231.973738,150.812207 L230.610351,151.54448 C228.94399,152.888981 226.545439,156.610369 228.375912,166.598093 L239.699596,221.422535 L248.018779,219.489815 L248.018779,165.349627 C232.327209,163.897086 231.973738,150.812207 231.973738,150.812207 Z" fill="#A27C55"></path>
                <path d="M232.131455,148.597224 L232.996691,151.345681 C232.996691,151.345681 233.333172,164.370974 248.270507,165.816901 L261.489388,164.65777 L285.860198,164.65777 L299.211268,143.626103 C299.19925,142.275775 299.187233,140.841797 299.163199,139.348071 C274.540029,139.168824 255.16836,141.355639 232.131455,148.597224 Z" fill="#21254F"></path>
                <path d="M297.62835,76.6713615 L299.028927,76.6713615 C312.232666,76.6713615 323.042254,87.5181023 323.042254,100.779234 L323.042254,163.169014 L273.615023,163.169014 L273.615023,100.779234 C273.615023,87.5181023 284.424611,76.6713615 297.62835,76.6713615 Z" fill="#B3B3B3"></path>
                <path d="M300.541282,76.6713615 C313.495748,77.1880165 323.924883,87.8214965 323.924883,100.761901 L323.924883,163.169014 L277.14554,163.169014 L277.14554,100.761901 C277.14554,87.8214965 287.586815,77.1880165 300.541282,76.6713615 Z" fill="#DBD8D1"></path>
                <path d="M239.913881,221.643048 C239.913881,221.643048 229.241221,228.315733 228.615501,233.01498 C227.98978,237.714228 247.729479,231.115547 249.299682,228.636416 C250.858079,226.157286 248.20172,220.989347 247.694061,219.657277 L239.913881,221.643048 Z" fill="#354A5E"></path>
                <path d="M34.1305197,185.234742 C29.3723107,199.0977 22.9994909,210.773657 25.1400734,229.739617 C26.0207702,237.567408 29.0665132,242.742116 32.4669813,246.13615 C42.8885599,246.13615 53.3101384,246.13615 63.731717,246.13615 C67.144417,242.742116 70.19016,237.567408 71.0708568,229.739617 C73.1992074,210.773657 66.8263876,199.0977 62.0681786,185.234742 L34.1305197,185.234742 Z" fill="#EBEAE5"></path>
                <path d="M48.9859155,143.751174 C54.7824956,142.153078 59.1361502,135.455713 59.1361502,127.428635 C59.1361502,119.401557 54.7824956,112.691993 48.9859155,111.093897 C43.1893354,112.691993 38.8356808,119.401557 38.8356808,127.428635 C38.8356808,135.455713 43.1893354,142.153078 48.9859155,143.751174 Z" fill="#94A0D1"></path>
                <path d="M37.7780861,169.338009 C38.5819531,166.253038 36.5662865,162.449811 32.7509175,160.283267 C28.9235504,158.116722 24.5562727,158.305118 22.2406556,160.530535 C21.4367886,163.615506 23.4524552,167.418734 27.2798223,169.585278 C31.0951913,171.751822 35.462469,171.563427 37.7780861,169.338009 Z" fill="#94A0D1"></path>
                <path d="M61.0657714,159.753361 C60.3073264,156.893256 62.2214973,153.358818 65.8211018,151.347443 C69.4327451,149.336069 73.5500185,149.510465 75.7410821,151.579972 C76.4995272,154.440077 74.597395,157.974516 70.9857517,159.98589 C67.3861472,161.997265 63.2688739,161.822868 61.0657714,159.753361 Z" fill="#94A0D1"></path>
                <path d="M49.4232259,185.234742 L49.4232259,157.97934 L49.4232259,156.660331 L49.4232259,130.021288 C49.4232259,130.021288 49.4872923,128.862533 49.1028939,128.763915 C48.7276478,128.652971 48.5812103,129.096749 48.572058,129.380274 C48.572058,129.651472 48.5446009,130.021288 48.5446009,130.021288 L48.5446009,165.54823 L48.5446009,166.90422 L48.5446009,185.234742 L49.4232259,185.234742 Z" fill="#616989"></path>
                <path d="M48.5446009,175.930639 L40.2138548,171.045422 L26.7313653,162.907515 L25.8392341,162.41281 C25.8392341,162.41281 25.2361032,162.128354 24.8717116,162.41281 C24.4947547,162.697265 24.8717116,163.1425 25.173277,163.377486 C25.4874077,163.612471 26.1031039,163.909294 26.1031039,163.909294 L39.5981587,172.047201 L39.5981587,172.059568 L48.5446009,177.29108 L48.5446009,175.930639 Z" fill="#616989"></path>
                <path d="M49.42723,165.816901 L56.4345765,162.273196 L56.4701468,162.25048 L69.026458,154.765538 C69.026458,154.765538 69.3347338,154.640599 69.6311529,154.265784 C69.9157152,153.890969 69.5125853,153.379858 69.1805959,153.470722 C68.8486066,153.561586 68.4217631,153.845537 68.4217631,153.845537 L55.8891655,161.330479 L49.42723,164.601592 L49.42723,165.816901 Z" fill="#616989"></path>
            </g>
        </g>
    </g>
</svg>
